{
    "asset" : {
        "generator" : "Khronos glTF Blender I/O v1.6.16",
        "version" : "2.0"
    },
    "scene" : 0,
    "scenes" : [
        {
            "name" : "Scene",
            "nodes" : [
                3
            ]
        }
    ],
    "nodes" : [
        {
            "mesh" : 0,
            "name" : "Circle.016",
            "rotation" : [
                0.7071068286895752,
                0,
                0,
                0.7071068286895752
            ],
            "scale" : [
                2.6081268787384033,
                2.6081268787384033,
                2.6081268787384033
            ],
            "translation" : [
                2.072752522508381e-06,
                2.96989369392395,
                -0.1275530457496643
            ]
        },
        {
            "mesh" : 1,
            "name" : "Circle.017",
            "rotation" : [
                0.7071068286895752,
                0,
                0,
                0.7071068286895752
            ],
            "scale" : [
                7.684196472167969,
                7.684196472167969,
                6.214825630187988
            ],
            "translation" : [
                2.072752522508381e-06,
                2.1954636573791504,
                1.928418517112732
            ]
        },
        {
            "mesh" : 2,
            "name" : "Sphere.002",
            "scale" : [
                2.655395030975342,
                2.655395030975342,
                2.655395030975342
            ],
            "translation" : [
                -0.0010591765167191625,
                8.421282768249512,
                1.9288164377212524
            ]
        },
        {
            "children" : [
                0,
                1,
                2
            ],
            "name" : "Empty.001",
            "scale" : [
                0.0287562757730484,
                0.0287562757730484,
                0.0287562757730484
            ]
        }
    ],
    "materials" : [
        {
            "doubleSided" : true,
            "name" : "Lamp golden",
            "pbrMetallicRoughness" : {
                "baseColorFactor" : [
                    0.8000000715255737,
                    0.5777996182441711,
                    0.2818979024887085,
                    1
                ],
                "roughnessFactor" : 0.30000001192092896
            }
        },
        {
            "doubleSided" : true,
            "emissiveFactor" : [
                1,
                1,
                1
            ],
            "name" : "Lampshade",
            "pbrMetallicRoughness" : {}
        }
    ],
    "meshes" : [
        {
            "name" : "Circle.017",
            "primitives" : [
                {
                    "attributes" : {
                        "POSITION" : 0,
                        "NORMAL" : 1,
                        "TEXCOORD_0" : 2
                    },
                    "indices" : 3,
                    "material" : 0
                }
            ]
        },
        {
            "name" : "Circle.018",
            "primitives" : [
                {
                    "attributes" : {
                        "POSITION" : 4,
                        "NORMAL" : 5,
                        "TEXCOORD_0" : 6
                    },
                    "indices" : 7,
                    "material" : 0
                }
            ]
        },
        {
            "name" : "Sphere.002",
            "primitives" : [
                {
                    "attributes" : {
                        "POSITION" : 8,
                        "NORMAL" : 9,
                        "TEXCOORD_0" : 10
                    },
                    "indices" : 11,
                    "material" : 1
                }
            ]
        }
    ],
    "accessors" : [
        {
            "bufferView" : 0,
            "componentType" : 5126,
            "count" : 1056,
            "max" : [
                0.8260194063186646,
                0.6517246961593628,
                0.8260193467140198
            ],
            "min" : [
                -0.8260193467140198,
                -0.3702705204486847,
                -0.8260194063186646
            ],
            "type" : "VEC3"
        },
        {
            "bufferView" : 1,
            "componentType" : 5126,
            "count" : 1056,
            "type" : "VEC3"
        },
        {
            "bufferView" : 2,
            "componentType" : 5126,
            "count" : 1056,
            "type" : "VEC2"
        },
        {
            "bufferView" : 3,
            "componentType" : 5123,
            "count" : 6324,
            "type" : "SCALAR"
        },
        {
            "bufferView" : 4,
            "componentType" : 5126,
            "count" : 1760,
            "max" : [
                0.06954734027385712,
                0.0695478767156601,
                0.3990553915500641
            ],
            "min" : [
                -0.06954723596572876,
                -0.06954736262559891,
                -0.5833330750465393
            ],
            "type" : "VEC3"
        },
        {
            "bufferView" : 5,
            "componentType" : 5126,
            "count" : 1760,
            "type" : "VEC3"
        },
        {
            "bufferView" : 6,
            "componentType" : 5126,
            "count" : 1760,
            "type" : "VEC2"
        },
        {
            "bufferView" : 7,
            "componentType" : 5123,
            "count" : 10548,
            "type" : "SCALAR"
        },
        {
            "bufferView" : 8,
            "componentType" : 5126,
            "count" : 2332,
            "max" : [
                0.9872313737869263,
                0.9975767135620117,
                0.9872314929962158
            ],
            "min" : [
                -0.9872310161590576,
                -0.9975767135620117,
                -0.9872310161590576
            ],
            "type" : "VEC3"
        },
        {
            "bufferView" : 9,
            "componentType" : 5126,
            "count" : 2332,
            "type" : "VEC3"
        },
        {
            "bufferView" : 10,
            "componentType" : 5126,
            "count" : 2332,
            "type" : "VEC2"
        },
        {
            "bufferView" : 11,
            "componentType" : 5123,
            "count" : 11904,
            "type" : "SCALAR"
        }
    ],
    "bufferViews" : [
        {
            "buffer" : 0,
            "byteLength" : 12672,
            "byteOffset" : 0
        },
        {
            "buffer" : 0,
            "byteLength" : 12672,
            "byteOffset" : 12672
        },
        {
            "buffer" : 0,
            "byteLength" : 8448,
            "byteOffset" : 25344
        },
        {
            "buffer" : 0,
            "byteLength" : 12648,
            "byteOffset" : 33792
        },
        {
            "buffer" : 0,
            "byteLength" : 21120,
            "byteOffset" : 46440
        },
        {
            "buffer" : 0,
            "byteLength" : 21120,
            "byteOffset" : 67560
        },
        {
            "buffer" : 0,
            "byteLength" : 14080,
            "byteOffset" : 88680
        },
        {
            "buffer" : 0,
            "byteLength" : 21096,
            "byteOffset" : 102760
        },
        {
            "buffer" : 0,
            "byteLength" : 27984,
            "byteOffset" : 123856
        },
        {
            "buffer" : 0,
            "byteLength" : 27984,
            "byteOffset" : 151840
        },
        {
            "buffer" : 0,
            "byteLength" : 18656,
            "byteOffset" : 179824
        },
        {
            "buffer" : 0,
            "byteLength" : 23808,
            "byteOffset" : 198480
        }
    ],
    "buffers" : [
        {
            "byteLength" : 222288,
            "uri" : "data:application/octet-stream;base64,"
        }
    ]
}
